<?xml version="1.0" encoding="UTF-8" standalone="no"?>
<!DOCTYPE svg PUBLIC "-//W3C//DTD SVG 1.1//EN"
 "http://www.w3.org/Graphics/SVG/1.1/DTD/svg11.dtd">
<!-- Generated by graphviz version 2.38.0 (20140413.2041)
 -->
<!-- Title: G Pages: 1 -->
<svg width="517pt" height="258pt"
 viewBox="0.00 0.00 517.00 258.00" xmlns="http://www.w3.org/2000/svg" xmlns:xlink="http://www.w3.org/1999/xlink">
<g id="graph0" class="graph" transform="scale(1 1) rotate(0) translate(4 254)">
<title>G</title>
<polygon fill="white" stroke="none" points="-4,4 -4,-254 513,-254 513,4 -4,4"/>
<g id="clust1" class="cluster"><title>cluster_Global</title>
<path fill="none" stroke="gray" d="M20,-8C20,-8 489,-8 489,-8 495,-8 501,-14 501,-20 501,-20 501,-230 501,-230 501,-236 495,-242 489,-242 489,-242 20,-242 20,-242 14,-242 8,-236 8,-230 8,-230 8,-20 8,-20 8,-14 14,-8 20,-8"/>
<text text-anchor="middle" x="254.5" y="-229.2" font-family="Times,serif" font-size="11.00" fill="gray">Global</text>
</g>
<!-- \\sefv2formfactory -->
<g id="node1" class="node"><title>\\sefv2formfactory</title>
<polygon fill="none" stroke="black" points="452.5,-214 327.5,-214 327.5,-178 452.5,-178 452.5,-214"/>
<text text-anchor="middle" x="390" y="-193.2" font-family="Courier,monospace" font-size="11.00">sefv2formfactory</text>
</g>
<!-- \\sefv2formfactoryinterface -->
<g id="node7" class="node"><title>\\sefv2formfactoryinterface</title>
<polygon fill="none" stroke="black" points="208,-214 23,-214 23,-178 208,-178 208,-214"/>
<text text-anchor="middle" x="115.5" y="-193.2" font-family="Courier,monospace" font-size="11.00">sefv2formfactoryinterface</text>
</g>
<!-- \\sefv2formfactory&#45;&gt;\\sefv2formfactoryinterface -->
<g id="edge1" class="edge"><title>\\sefv2formfactory&#45;&gt;\\sefv2formfactoryinterface</title>
<path fill="none" stroke="black" stroke-dasharray="1,5" d="M327.166,-196C295.014,-196 254.887,-196 218.306,-196"/>
<polygon fill="none" stroke="black" points="218.092,-192.5 208.091,-196 218.091,-199.5 218.092,-192.5"/>
</g>
<!-- \\sefv2modsimpleemailform -->
<g id="node2" class="node"><title>\\sefv2modsimpleemailform</title>
<polygon fill="none" stroke="black" points="476,-160 304,-160 304,-124 476,-124 476,-160"/>
<text text-anchor="middle" x="390" y="-139.2" font-family="Courier,monospace" font-size="11.00">sefv2modsimpleemailform</text>
</g>
<!-- \\sefv2jformproxyinterface -->
<g id="node5" class="node"><title>\\sefv2jformproxyinterface</title>
<polygon fill="none" stroke="black" points="205,-106 26,-106 26,-70 205,-70 205,-106"/>
<text text-anchor="middle" x="115.5" y="-85.2" font-family="Courier,monospace" font-size="11.00">sefv2jformproxyinterface</text>
</g>
<!-- \\sefv2modsimpleemailform&#45;&gt;\\sefv2jformproxyinterface -->
<g id="edge2" class="edge"><title>\\sefv2modsimpleemailform&#45;&gt;\\sefv2jformproxyinterface</title>
<path fill="none" stroke="black" stroke-dasharray="1,5" d="M303.9,-125.136C275.822,-119.572 244.354,-113.336 215.339,-107.587"/>
<polygon fill="none" stroke="black" points="215.678,-104.086 205.188,-105.575 214.317,-110.952 215.678,-104.086"/>
</g>
<!-- \\sefv2formrendererinterface -->
<g id="node6" class="node"><title>\\sefv2formrendererinterface</title>
<polygon fill="none" stroke="black" points="211.5,-160 19.5,-160 19.5,-124 211.5,-124 211.5,-160"/>
<text text-anchor="middle" x="115.5" y="-139.2" font-family="Courier,monospace" font-size="11.00">sefv2formrendererinterface</text>
</g>
<!-- \\sefv2modsimpleemailform&#45;&gt;\\sefv2formrendererinterface -->
<g id="edge3" class="edge"><title>\\sefv2modsimpleemailform&#45;&gt;\\sefv2formrendererinterface</title>
<path fill="none" stroke="black" stroke-dasharray="1,5" d="M303.9,-142C278.006,-142 249.229,-142 222.151,-142"/>
<polygon fill="none" stroke="black" points="221.866,-138.5 211.866,-142 221.866,-145.5 221.866,-138.5"/>
</g>
<!-- \\sefv2simpleemailformemailmsg -->
<g id="node3" class="node"><title>\\sefv2simpleemailformemailmsg</title>
<polygon fill="none" stroke="black" points="493,-106 287,-106 287,-70 493,-70 493,-106"/>
<text text-anchor="middle" x="390" y="-85.2" font-family="Courier,monospace" font-size="11.00">sefv2simpleemailformemailmsg</text>
</g>
<!-- \\sefv2helper -->
<g id="node4" class="node"><title>\\sefv2helper</title>
<polygon fill="none" stroke="black" points="435.5,-52 344.5,-52 344.5,-16 435.5,-16 435.5,-52"/>
<text text-anchor="middle" x="390" y="-31.2" font-family="Courier,monospace" font-size="11.00">sefv2helper</text>
</g>
<!-- \\sefv2helperfactoryinterface -->
<g id="node8" class="node"><title>\\sefv2helperfactoryinterface</title>
<polygon fill="none" stroke="black" points="215,-52 16,-52 16,-16 215,-16 215,-52"/>
<text text-anchor="middle" x="115.5" y="-31.2" font-family="Courier,monospace" font-size="11.00">sefv2helperfactoryinterface</text>
</g>
<!-- \\sefv2helper&#45;&gt;\\sefv2helperfactoryinterface -->
<g id="edge4" class="edge"><title>\\sefv2helper&#45;&gt;\\sefv2helperfactoryinterface</title>
<path fill="none" stroke="black" stroke-dasharray="1,5" d="M344.307,-34C312.015,-34 266.953,-34 225.423,-34"/>
<polygon fill="none" stroke="black" points="225.231,-30.5001 215.231,-34 225.231,-37.5001 225.231,-30.5001"/>
</g>
</g>
</svg>
